<?xml version="1.0" encoding="UTF-8"?>
<svg id="Layer_2" data-name="Layer 2" xmlns="http://www.w3.org/2000/svg" viewBox="0 0 53.23 58.81">
  <defs>
    <style>
      .cls-1 {
        fill: #cfa071;
      }
    </style>
  </defs>
  <g id="Layer_1-2" data-name="Layer 1">
    <path class="cls-1" d="M27.3,57.56c.18-.23.02-.6.02-.82l.07-2.06c.55.38.26-1.88.31-2.28.56-.1.27-.66.43-.96.19-.36.37-.51.36-1,0-.31.35-.66.19-1.07-.13-.31.28-.45.3-.64l.14-1.37c.03-.29.4-.45.3-.9-.08-.33.01-.68.34-.84.06-.23-.05-.6.08-.74.62-.34.45-1.18.99-1.62.31-.25.18-.77.35-1.06.41-.68.65-.58,1.38-2.18.12-.28.83-.37.6-.91.17-.23.59-.37.7-.63.17-.42.48-.54.77-.82l2.09-2.02c.18-.17.56-.06.71-.38.14-.29.48-.33.71-.48.26-.15.39-.58.7-.63.55-.08,1.23-.69,1.68-.92.68,0,.97-.29,1.63-.74.68-.02,1.6-.04,2.1-.64,1.92.24,1.25-.63,2.21-.35.89.26.27-.58,1.91-.33.38.06.44-.31.66-.32l2.71-.15c.24-.01.35-.44.78-.29.19.07.46-.08.56-.2.18-.22.16-.77.08-1.01-.03-.11-.27-.06-.38-.16-.22-.22-.42-.41-.77-.3-.34.1-.45-.2-.64-.3-.42-.22-.95.05-1.38-.12-.39-.15-.8-.28-1.23-.18-.4.09-.53-.17-.76-.31-.41-.24-.98.09-1.41-.13-.18-.09-.29-.43-.62-.3-.32.12-.43-.3-.62-.31l-1.42-.09c-.61-.44-1.29-.56-2.03-.64.39.04-1.14-.54-1.19-.64-.28-.03-.55-.03-.8-.06.01-.09,0-.18-.02-.24.1.17-1.5-.87-1.1-.52-.34-.3-.71-.41-1.07-.64-.4-.26-.64-.77-1.16-.65.1-.24-.3-.31-.36-.48-.15-.41-.52-.34-.8-.52-.76-.52-1.59-1.7-1.94-1.94-1.74-1.22-.54-1.51-1.63-1.76.2-.64-.49-.82-.65-1.24-.11-.3-.46-1.41-.76-1.7-.2-.2.09-.77-.24-.96-.29-.17-.5-.42-.39-.8.1-.34-.23-.44-.31-.64-.22-.5.18-1.7-.4-1.55l-.07-1.34c-.02-.42-.02-.52-.25-.88-.24-.37.03-1.06-.08-1.52-.05-.22-.2-.4-.21-.61l-.06-2.27-.31-.27c-.41-.36.09-1.43-.08-2.16-.05-.2-.49-.12-.65-.16l-.03-2.15c-.06-.24-.34-.45-.58-.67-.37,1.1-.93.37-.72,2.14.05.41-.08.55-.3.89-.11.17-.16.59-.35.71-.21.64.3,1.64-.1,2l-.31.28-.05,2.86c0,.12-.31.15-.31.27l-.08,1.67c-.02.44-.31.84-.18,1.33.1.37-.17.53-.3.76-.21.38,0,.87-.11,1.3-.08.29-.65.53-.64.82.02.45-.23.62-.32.89-.59,1.66-.37.76-.97,2.07-.14.31-.2.47-.41.74l-1.72,2.26c-.24.32-.5.61-.94.65.01.64-.48,1-1.04,1.14-.41.11-.6.53-.93.75-.24.16-.53.25-.69.5-.28.41-2.02,1.14-2.39,1.39-.32.21-.52.27-.95.32-.24.03-.4.49-.82.35-.08-.03-.11.28-.1.31h-.39s-.42,0-.42,0c-.12,0-.24.07-.19.25-.28.05-.74-.12-.97.1-.31.31-.67.32-1.06.28-.23-.02-.3.12-.48.26-.27.27-2.2-.21-1.95.41l-1.38.06c-.27.01-1.09-.19-1.04.31-.42.05-.88-.03-1.35.09-.46.11-.9.27-1.34.22-.35-.04-.52-.06-.8.18-.24.22-.21.49-.37.77-.12.21-.36.21-.3.53.05.26.09.36.4.28.2,0,.36.23.6.23l1.82.06c0,.08-.02.16.03.27.33.08.62.07.91.02.49.07.98.04,1.47.02.93.74,1.71.19,1.91.4l.29.29,1.77.09c.17,0,.22.28.39.26,1-.09.36.52,1.69.44.05.12.25.27.45.21.42-.14.53.21.77.29.78.27,1.27.7,1.34.72.31.09.51.22.75.38.27.19.7.07.82.55.04.16.45.04.53.16.26.35.68.58.9.91.62.93,1.5.54,2.28,2.1.32.65,1.15,1.04,1.39,1.66.27.68.46,1.13,1,1.63.16.15,0,.69.49.72.41.02.02.52.52,1.26.51.75.06,1.67,1.07,2-.09.45.25.73.29,1.11l.14,1.34c.02.21.38.32.3.65-.1.44.05.82.19,1.21.15.42-.1.92.08,1.32.1.21.34.24.34.49,0,.33-.16.87.04,1.18.77,1.18-.21,1.45.65,2v3.72c.42.42.8,1.12,1.27.95.31-.11-.31-.4.36-1.23Z"/>
  </g>
</svg>