<?xml version="1.0" encoding="UTF-8"?>
<svg id="Layer_2" data-name="Layer 2" xmlns="http://www.w3.org/2000/svg" viewBox="0 0 43.69 53.89">
  <defs>
    <style>
      .cls-1 {
        fill: #cfa071;
      }
    </style>
  </defs>
  <g id="Layer_1-2" data-name="Layer 1">
    <path class="cls-1" d="M29.62,53.55c.44,0,.89-.08,1.34-.05.23.01.29-.13.48-.25l1.77-.18c.43-.45,1.74-.51,2-.59.22-.07.53-.28.78-.4,1.24-.58.35.1,1.62-.68.68-.42,1.41-.83,2.2-1.01.58-.6,1.41-1.09,2.04-1.47l.91-.56c.54-.33,1.16-.86.86-1.59-.66.03-4.22-.17-4.41.19-.81.06-1.62.02-2.43.03.01-.05.04-.16,0-.18-.1-.05-.24.02-.36.02l-2.78-.05c-.4,0-.51-.29-.77-.31l-1.74-.14c-.27-.27-.59-.28-.98-.36-.23-.05-.35-.47-.75-.29-.28.12-.42-.15-.58-.25l-.68-.4c-.41-.24-1.11-.07-1.44-.5-.17-.22-.46-.12-.62-.25-.51-.4-1.3-1.08-1.98-1.29-.43-.14-.69-.64-.96-.96-.12-.14-.45-.04-.54-.18-.31-.47-.82-.64-1.15-1.05l-.6-.73c-.53-.64-1.17-1.16-1.73-1.73.03-.65-.6-.87-.98-1.21-.15-.13-.06-.43-.19-.57-1.03-1.11-.07-1.07-.87-1.22.14-.32-.17-.48-.3-.73-.14-.25-.08-.55-.41-.69-.09-.15.03-.54-.07-.66-.32-.16-.26-.48-.41-.71-.25-.39-.62-1.29-.51-1.63.12-.38-.15-.52-.32-.74-.2-.27.12-.8-.1-1.03-.72-.51.11-1.4-.63-1.27-.07-.75,0-1.5-.01-2.29v-4.31s.31-.28.31-.28c.37-.31-.09-1.2.09-1.79.05-.17.46-.28.3-.6-.17-.31.3-.47.31-.63.07-.76.05-1.5.59-2.11.35-.4-.48-.91.74-1.61-.04-.4.22-.53.33-.78.12-.26.11-.46.34-.68.27-.26.22-.79.44-1.1.27-.4.77-.65.95-1.07.15-.36.49-.52.68-.83.2-.32.16-.81.57-1.02.7-.36,1.06-1.13,1.62-1.6.77-.65,1.42-1.32,2.09-2.04.37,0,1.77-1.08,2.05-1.34.16-.15.47-.09.65-.31.24-.3.84-.19,1.1-.46.21-.22.42-.22.67-.35,1.18-.62.49-.62,1.64-.65.87-.73.93-.67.93-1.3,0-.08,0-.3-.11-.31l-1.32-.1c0-.05,0-.11,0-.16,0-.1-.1-.16-.24-.16h-4.84c-.13,0-.25.02-.32.09-.04.05-.02.16-.03.24-.13,0-1.59,0-1.69.11-.05.05-.03.15-.03.24-.12-.01-.25.09-.36.07-.45-.09-.9,0-1.35,0-.21,0-.29.24-.46.25-.42.03-.83.28-1.17.27-.52-.01-.65.2-1.01.35-.33.13-.6.1-.91.34-.18.14-.48.24-.73.35l-.74.36c-.17.08-.4.32-.56.38-.5.17-.93.32-1.34.63-.21.16-.64.11-.76.45-.13.36-.6.25-.78.42-.28.28-.39.5-.82.58-.43.09-.69.73-1.08.9-.41.18-.61.5-.94.76-.51.41-.99.76-1.34,1.32-.3.48-1,.65-1.24,1.17-.21.47-.37.88-.84,1.26-.28.23-.86.5-.9.93-.03.35-.32.43-.4.63-.23.58-.59.89-.94,1.36.43-.59-.96,1.8-.73,1.3-.12.26-.14.52-.38.75-.19.18.08.73-.19.93-.29.21-.58.39-.45.83.09.3-.17.39-.26.57-.13.24-.23.47-.41.69-.23.29.09.81-.12,1.12-.12.19-.42.29-.33.63.12.41-.17.73-.19,1.09l-.07,1.66c0,.13-.26.16-.29.28-.13.42.03.82,0,1.19-.04.57-.08,1.15,0,1.72.02.1,0,.22-.01.33-.06,1.06-.04,2.12,0,3.18.02.32,0,.47.26.75.25.4-.11,1.07.11,1.52.23.48.12.98.26,1.46.09.31.48.49.31.99-.17.49.2.85.67.97.07.45.05.84.04,1.31.62.23.47.83.7,1.27l.38.73c.24.46.92,1.57,1.08,2.06.09.28.34.02.95,1.33,0-.01,1.91,2.37,2,2.44,1.15.76,1.05,1.23,2.19,2.15l1.01.82c.32.26.63.44.92.77.31.35.84.54,1.19.86.37.33.64.55,1.12.73.16.06.27.27.54.32.57.1,1.76,1.2,2.42,1.33.21.04.27.31.51.25.21-.05.48.12.7.04,0,.08.03.21.07.26-.04-.05,1.88.51,1.04.41l.79.1c.82.1,1.45.69,1.85.56.37-.13.53.15.75.31.28.19.68,0,.95.02.44.04.89.06,1.33.07,0,.04-.04.22.04.25.31.13.63.07.92.04.93.06,1.86.06,2.79,0,.24,0,1.94.23,1.66-.29Z"/>
  </g>
</svg>