<?xml version="1.0" encoding="UTF-8"?>
<svg id="Layer_2" data-name="Layer 2" xmlns="http://www.w3.org/2000/svg" viewBox="0 0 585.19 127.14">
  <defs>
    <style>
      .cls-1 {
        fill: #eee6da;
      }
    </style>
  </defs>
  <g id="Layer_1-2" data-name="Layer 1">
    <g id="uuid-a2efe335-20f8-4d18-9ee8-ce416ba355ab" data-name="Layer 1-2">
      <g>
        <path class="cls-1" d="M70.27,93.15h.48v13.33H0v-.42c7.51,0,9.31-3.6,9.43-20.06V22.16C9.31,5.71,7.51,2.1,0,2.1v-.3h67.56v13.33h-.42c-4.8-9.61-10.51-11.83-27.99-11.83h-19.46v50.03h33.87l-3.9,11.83h-.48c-3.42-6.91-9.73-10.21-24.26-10.21v-.12h-5.22v50.03h22.64c17.54,0,23.24-2.1,27.99-11.71h-.06Z"/>
        <path class="cls-1" d="M120.71,1.62c-21.74,0-32.67,26.18-32.67,52.43,0,40.42,23.06,62.16,64.98,62.16,3.6,0,7.33-.18,11.23-.48l-3.12,11.41c-41.2-4.2-84.32-30.99-84.32-73.69C76.81,26.67,91.65,0,120.71,0c57.95,0,58.43,106.66,1.2,108.28v-1.8c42.22-1.92,41.8-104.86-1.2-104.86Z"/>
        <path class="cls-1" d="M252.12,1.8v71.17c0,23.84-16.64,35.07-33.57,35.07s-35.49-12.13-35.49-35.07V21.14c-.3-15.55-2.1-19.04-9.43-19.04v-.3h29.07v.3c-7.33,0-9.13,3.42-9.43,19.04v51.83c0,19.16,14.35,28.77,28.77,28.77s28.59-9.61,28.59-28.77v-28.17h-.18c0-26.79-3.3-39.52-19.76-42.52v-.42h21.44v-.06Z"/>
        <path class="cls-1" d="M284.61,30.27v47.62c-.12,23.54.9,28.17,9.43,28.17v.42h-29.07v-.42c7.51,0,9.31-3.6,9.43-20.06V22.16c-.18-16.46-1.92-20.06-9.43-20.06v-.3h29.07v.3c-8.53,0-9.61,4.8-9.43,28.17Z"/>
        <path class="cls-1" d="M372.05,93.15h.42v13.33h-70.69v-.42c7.51,0,9.31-3.42,9.43-19.94V22.16c-.18-16.34-1.92-19.94-9.43-19.94v-.42h29.07v.42c-7.21,0-9.13,3.3-9.43,17.84v84.92h22.46c17.66,0,23.36-2.22,28.17-11.83ZM383.88,2.22c-8.53,0-9.61,4.62-9.43,28.17v20.54c-.18,23.54.9,28.17,9.43,28.17v.42h-29.07v-.42c7.51,0,9.31-3.6,9.43-19.94V22.16c-.12-16.34-1.92-19.94-9.43-19.94v-.42h29.07s0,.42,0,.42Z"/>
        <path class="cls-1" d="M430.78,106.48h-39.22v-.42c7.51,0,9.31-3.6,9.43-20.06V22.16c-.18-16.46-1.92-20.06-9.43-20.06v-.3h34.17c36.27,0,39.22,39.52,9.13,46.3,44.92,3.12,43.6,58.43-4.02,58.43l-.06-.06ZM411.15,3.3v44.5h14.53c24.56,0,24.56-44.32,0-44.32v-.18s-14.53,0-14.53,0ZM430.78,49.25h-19.64v55.55h19.64c33.99,0,33.99-55.55,0-55.55Z"/>
        <path class="cls-1" d="M559.61,100.47c3.6,0,7.33-1.2,11.11-4.5v.48c-4.02,7.63-10.81,11.83-19.46,11.83-11.83,0-26.06-22.34-26.06-22.34l-17.66-28.47h-13.45v29.49c.3,14.83,2.22,18.14,9.43,18.14v.42h-29.07v-.42c7.51,0,9.31-3.42,9.43-19.94V21.44c-.18-16.46-1.92-20.06-9.43-20.06v-.48h39.22c38.32,0,40.3,51.05,5.83,56.15,3.12,5.1,16.04,25.46,16.04,25.46.18,0,10.81,17.96,24.14,17.96h-.06ZM513.6,56.03c25.28,0,25.46-53.45,0-53.45h-19.64v53.45h19.64ZM585.19,79.09v.42h-29.07v-.42c7.51,0,9.31-3.6,9.43-19.94V22.16c-.12-16.34-1.92-19.94-9.43-19.94v-.42h29.07v.42c-8.53,0-9.61,4.62-9.43,28.17v20.54c-.18,23.54.9,28.17,9.43,28.17Z"/>
      </g>
    </g>
  </g>
</svg>