<?xml version="1.0" encoding="UTF-8"?>
<svg id="Layer_2" data-name="Layer 2" xmlns="http://www.w3.org/2000/svg" viewBox="0 0 56.79 56.96">
  <defs>
    <style>
      .cls-1 {
        fill: #cfa071;
      }
    </style>
  </defs>
  <g id="Layer_1-2" data-name="Layer 1">
    <g>
      <path class="cls-1" d="M20.04,41.21c.06.09.42-.03.49.09.3.52,2.66,1.91,3.36,1.6.22.72,1.09.17,1.36.48.16.18.23.23.42.23.45.01.92.09,1.37.07,0,.07-.02.19.02.23.07.06.2.09.32.09h2.79c.12,0,.24-.04.31-.1.05-.04.03-.15.03-.22.32.02.65-.1.96-.05.24.03.29-.1.48-.26.36-.29.96.23,1.35-.43.6.2,3.24-1.13,3.36-1.74.46.21.58-.2.84-.33,1.38-.72,1.63-1.48,2.76-2.4-.11-.52.49-.7.65-1.07.18-.41.5-.64.74-.99.25-.37.38-.74.65-1.18l.36-.59c.11-.19,0-.53.09-.78.84-.41-.15-1.26.71-1.55l.04-2.15.33-.29c-.04-1.29.08-2.55-.06-3.83-.02-.17-.48-.29-.31-.64.14-.28-.18-.44-.3-.6-.19-.27.11-.81-.1-1-.31-.18-.22-.57-.37-.73-.28-.3-.23-.55-.36-.9-.15-.39-.59-.65-.61-1.17,0-.24-.51-.41-.55-.61-.09-.47-.51-.63-.72-.99-.22-.39-.33-.91-.97-1-.16-.72-.86-1.04-1.37-1.47-.39-.33-.62-.59-1.15-.7-.37-.08-.58-.59-.91-.76-.26-.14-.56-.06-.8-.11.13-.51-.39-.05-1.21-.79-.29-.27-.47-.23-.86-.28-.57-.07-1.17-.4-1.78-.19-.4.14-.56-.32-.75-.34-1.35-.14-2.69-.05-3.99-.03-.13,0-.25,0-.4-.02-.17-.01-.22.2-.19.35-.71-.02-1.39-.02-2.04.28-.18.08-.34.02-.54.29-.09.12-.47,0-.68.04-.05.42-.49.27-.67.42-.3.24-.47.33-.89.35-.31.01-.5.53-.77.63-.43.16-.86.28-1.13.68-.16.24-.46.27-.64.44-.75.69-1.45,1.36-2.11,2.13-.13.15.03.51-.26.6-.36.11-.56.38-.52.78-.46.29-.6.78-.63,1.24-.04-.18-.78.85-.7,1.04.19.44-.24.59-.3.86-.09.39-.04.63-.35.91-.19.17-.04.67-.05.89l-.05,1.56-.32.28-.02,3.85c.5.08.26.61.4.84.24.38.33.61.4,1.08.03.2.47.37.28.76-.15.31.25.44.3.61.08.32.13.54.36.77.28.26.18.86.46,1.09.36.3.5.63.72.98.21.33.71.47.6.99.79.68,1.39,1.5,2.23,2.12.31.23.68.29.92.65Z"/>
      <path class="cls-1" d="M27.9,11.93c.36.14,1.01.13,1.38,0,.36-.14.51-.61.88-.79V.93c-.37-.22-.53-.65-.88-.83-.22-.11-.84-.16-1.02,0-.25.22-.5.31-.78.43-.16.07-.13.57-.47.61v9.95c.37.26.53.72.89.85Z"/>
      <path class="cls-1" d="M46.3,8.94c-.58.32-.82,1.04-1.36,1.41-.89.61-1.02,1.19-2.05,2.07-.41.35-.8.59-1.08,1.08-.28.48-1.33,1.01-1.42,1.43-.06.26-.19.36-.34.55-.17.21-.19.83-.02,1.08.19.3.53.62.81.82.19.14.81.11,1.01-.02.21-.14.44-.31.71-.37.76-.53.31-.78,1.3-1.34.94-.54,1.39-1.74,1.91-1.95.42-.17.74-.54.75-1.04.54-.12.74-.67,1.16-.91.5-.3.86-.61.97-1.18.1-.17.67-.2.58-.58.05-.34.03-.68.03-1.12-.11-.15-.32-.45-.55-.53-2.27-.27-1.45.07-2.41.6Z"/>
      <path class="cls-1" d="M17.14,16.53c.18-.24.09-.72.02-.99-.07-.28-.58-.4-.62-.65-.08-.43-.21-.47-.51-.73l-.9-.8c-.36-.32-.85-.65-1.09-1.09-.35-.64-1.04-.87-1.49-1.39-.49-.57-1.37-1.89-2.12-2.24-.14-.07-.18-.36-.43-.32-.42-.11-.84-.06-1.36,0-.28.03-.35.16-.4.56-.08-.02-.26,0-.3.13-.06.19-.03.71,0,.93,0,.07-.06.25.05.3.25.12.22.35.37.51l1.09,1.18c.25.27.43.43.68.67l3.07,3.08c.22.22.34.41.6.63l1.21,1.06c.25.22.99.15,1.32,0,.33-.16.62-.54.83-.82Z"/>
      <path class="cls-1" d="M11.69,47.2l1.38-1.29c.26-.24.41-.63.73-.85.65-.45,1.18-.97,1.63-1.63.34-.51,1.3-.87,1.39-1.36.11-.6.23-1.85-.48-2.12-1.93-.26-1.51.37-2.04.66-.54.29-.85.73-1.22,1.18-.8.99-1,.79-1.66,1.63-.81,1.04-1.73,1.52-2.05,2.07-.22.38-1.41,1.31-1.41,1.38-.05.5-.13,1.07,0,1.45.2.54.85.39,1.25.42,1.54.14,1.58-.69,2.48-1.54Z"/>
      <path class="cls-1" d="M45.75,27.64c-.17.02-.42.35-.55.48-.11,1.14-.21,1.26.68,2.13.3.29.88.04,1.32.09,1.66.05,3.32.05,5.11,0,.07,0,.15,0,.3,0,1.01.06,2.02.02,3.02,0,.4,0,.55-.3.83-.64.42-.51.49-1.63-.14-1.94-.25-.13-.69-.37-1.02-.37h-8.57c-.31.01-.63.28-.98.25Z"/>
      <path class="cls-1" d="M11.24,29.89c.58-.05.49-1.8.22-1.95-.03-.33-.49-.59-.89-.59l-9.46.04c-.36,0-.9.47-1,.79-.33,1.03.25,1.19.43,1.72.19.15.61.11.8.46l9.2-.05c.19,0,.44-.4.71-.42Z"/>
      <path class="cls-1" d="M40.3,40.64c-.57-.2-.31,1.24-.29,1.62.57-.02.92.38,1.1.86.11.3.49.42.66.67.36.53.8.94,1.3,1.34.44.35.73.83,1.12,1.19.63.59,1.28,1.13,1.78,1.84.34.49.81.62,1.37.58.58-.04,1.13.05,1.58-.37l-.05-1.64c-.41-.18-.8-.35-.71-.92-.57.01-.74-.65-1.15-.83-.47-.21-.45-.54-.66-.84-.55-.13-.92-.73-1.33-1.33-.04-.12-.39-.09-.5-.16-.12-.08-.04-.39-.15-.52-.23-.27-.54-.43-.62-.81-.23-.05-.4-.04-.62-.12-.02-.46-.38-.74-.72-.89-.04-.12-.06-.29-.15-.34-.03-.02-1.78-.44-1.95.66Z"/>
      <path class="cls-1" d="M29.06,56.63c.27-.08.73-.37.73-.75v-10.11c-.47.1-.6-.21-.87-.36-.22-.13-.81-.12-1.02,0-.28.17-.43.42-.87.35v10.67c.24.18.39.38.72.46.13.01,1.55.25,1.32-.27Z"/>
    </g>
  </g>
</svg>